<svg height="512" viewBox="0 0 64 64" width="512" xmlns="http://www.w3.org/2000/svg"><g id="Web"><path d="m48 29-4.54-.57a11.843 11.843 0 0 0 -.84-2.01l2.82-3.61-4.25-4.25-3.61 2.82a11.843 11.843 0 0 0 -2.01-.84l-.57-4.54h-6l-.57 4.54a11.843 11.843 0 0 0 -2.01.84l-3.61-2.82-4.25 4.25 2.82 3.61c-.07.13-.13.26-.19.39a11.41 11.41 0 0 0 -.65 1.62l-4.54.57v6l4.54.57a11.413 11.413 0 0 0 .84 2l-2.82 3.62 4.25 4.24 3.62-2.81a11.413 11.413 0 0 0 2 .84l.57 4.54h6l.57-4.54a11.413 11.413 0 0 0 2-.84l3.62 2.81 4.25-4.24-.15-.19h15.71v-8h-13zm-16 11a8 8 0 1 1 8-8 8 8 0 0 1 -8 8z" fill="#bddbff"/><path d="m31 11v-8h-28v8h16z" fill="#bddbff"/><g fill="#57a4ff"><path d="m6 6h2v2h-2z"/><path d="m10 6h2v2h-2z"/><path d="m14 6h2v2h-2z"/><path d="m26 6h2v2h-2z"/><path d="m61 32h-12v-3a1 1 0 0 0 -.876-.992l-3.919-.49q-.181-.489-.409-.975l2.429-3.121a1 1 0 0 0 -.082-1.321l-4.243-4.244a1 1 0 0 0 -1.321-.082l-3.122 2.425q-.486-.227-.975-.409l-.49-3.919a1 1 0 0 0 -.992-.872h-3v-12a1 1 0 0 0 -1-1h-28a1 1 0 0 0 -1 1v28a1 1 0 0 0 1 1h12v3a1 1 0 0 0 .876.992l3.919.49q.181.489.409.975l-2.429 3.121a1 1 0 0 0 .082 1.321l4.243 4.243a1 1 0 0 0 1.321.082l3.122-2.424q.486.227.975.409l.49 3.919a1 1 0 0 0 .992.872h3v12a1 1 0 0 0 1 1h28a1 1 0 0 0 1-1v-28a1 1 0 0 0 -1-1zm-1 2v6h-14.225l-1.975-2.543q.227-.486.409-.975l3.919-.49a1 1 0 0 0 .872-.992v-1zm-30-30v6h-26v-6zm-26 26v-18h26v3h-1a1 1 0 0 0 -.992.876l-.49 3.919q-.489.181-.975.409l-3.121-2.429a1 1 0 0 0 -1.321.082l-4.244 4.243a.972.972 0 0 0 -.16.234l2.273-9.093-1.94-.484-4 16 .97.243v1zm13.575-7.18a.994.994 0 0 0 .2.6l2.425 3.123q-.227.486-.409.975l-3.5.438zm11.85 20.517a1 1 0 0 0 -.7-.831 10.926 10.926 0 0 1 -1.838-.77 1 1 0 0 0 -1.08.1l-2.916 2.264-2.991-2.991 2.272-2.92a1 1 0 0 0 .1-1.08 10.926 10.926 0 0 1 -.77-1.838 1 1 0 0 0 -.831-.7l-3.671-.454v-4.234l3.663-.458a1 1 0 0 0 .831-.7 10.926 10.926 0 0 1 .77-1.838 1 1 0 0 0 -.1-1.08l-2.264-2.916 2.991-2.991 2.92 2.272a1 1 0 0 0 1.08.1 10.926 10.926 0 0 1 1.838-.77 1 1 0 0 0 .7-.831l.454-3.671h4.234l.458 3.663a1 1 0 0 0 .7.831 10.926 10.926 0 0 1 1.838.77 1 1 0 0 0 1.08-.1l2.92-2.272 2.987 2.999-2.272 2.92a1 1 0 0 0 -.1 1.08 10.926 10.926 0 0 1 .77 1.838 1 1 0 0 0 .831.7l3.671.454v4.234l-3.663.458a1 1 0 0 0 -.831.7 10.926 10.926 0 0 1 -.77 1.838 1 1 0 0 0 .1 1.08l2.272 2.92-2.999 2.987-2.92-2.272a1 1 0 0 0 -1.08-.1 10.926 10.926 0 0 1 -1.838.77 1 1 0 0 0 -.7.831l-.454 3.671h-4.234zm4.575 16.663v-11h1a1 1 0 0 0 .992-.876l.49-3.919q.489-.181.975-.409l3.121 2.428a1 1 0 0 0 1.321-.082l4.143-4.142h13.958v18z"/><path d="m56 36h2v2h-2z"/><path d="m40.535 12.949 1.414-1.414-2.333-2.335a19.013 19.013 0 0 1 16.384 18.8h2a21.026 21.026 0 0 0 -18.716-20.87l2.665-2.665-1.414-1.414-4.242 4.242a1 1 0 0 0 0 1.414z"/><path d="m23.465 51.051-1.414 1.414 2.333 2.335a19.013 19.013 0 0 1 -16.384-18.8h-2a21.026 21.026 0 0 0 18.716 20.87l-2.665 2.665 1.414 1.414 4.242-4.242a1 1 0 0 0 0-1.414z"/><path d="m12.293 14.293-6 6a1 1 0 0 0 0 1.414l6 6 1.414-1.414-5.293-5.293 5.293-5.293z"/><path d="m46 52.586-2.121-2.121-1.414 1.414 2.828 2.828a1 1 0 0 0 1.414 0l5.657-5.657-1.414-1.414z"/><path d="m41 32a9 9 0 1 0 -9 9 9.01 9.01 0 0 0 9-9zm-9 7a7 7 0 1 1 7-7 7.009 7.009 0 0 1 -7 7z"/></g></g></svg>